<svg width="50" height="50" viewBox="0 0 50 50" fill="none" xmlns="http://www.w3.org/2000/svg">
<path d="M20.8333 42.8489C13.6904 45.26 7.73806 42.8489 4.16663 35.4166" stroke="white" stroke-width="1.5" stroke-linecap="round" stroke-linejoin="round"/>
<path d="M20.8333 45.8333V39.0789C20.8333 37.8325 21.2164 36.7491 21.8341 35.7706C22.2579 35.0991 21.9677 34.1466 21.2023 33.9362C14.8623 32.1933 10.4166 29.391 10.4166 20.0959C10.4166 17.6794 11.2084 15.4074 12.6002 13.43C12.9466 12.9378 13.1197 12.6918 13.1614 12.4689C13.203 12.2461 13.1306 11.9552 12.9858 11.3735C12.3966 9.00604 12.4348 6.49202 13.3192 4.22543C13.3192 4.22543 15.1467 3.63 19.3062 6.22848C20.2558 6.82177 20.7307 7.11841 21.1489 7.18477C21.567 7.25112 22.1262 7.11212 23.2443 6.83414C24.7735 6.45402 26.3491 6.24996 28.125 6.24996C29.9008 6.24996 31.4764 6.45402 33.0056 6.83414C34.1237 7.11212 34.6829 7.25112 35.101 7.18477C35.5193 7.11841 35.9941 6.82177 36.9437 6.22848C41.1033 3.63 42.9308 4.22543 42.9308 4.22543C43.8152 6.49202 43.8533 9.00604 43.2641 11.3735C43.1193 11.9552 43.0468 12.2461 43.0885 12.4689C43.1302 12.6918 43.3033 12.9379 43.6498 13.43C45.0414 15.4074 45.8333 17.6794 45.8333 20.0959C45.8333 29.391 41.3877 32.1933 35.0477 33.9362C34.2823 34.1466 33.992 35.0991 34.4158 35.7706C35.0335 36.7491 35.4166 37.8325 35.4166 39.0789V45.8333" stroke="white" stroke-width="1.5" stroke-linecap="round" stroke-linejoin="round"/>
</svg>
