<svg width="50" height="50" viewBox="0 0 50 50" fill="none" xmlns="http://www.w3.org/2000/svg">
<path d="M5.20831 25C5.20831 15.6702 5.20831 11.0052 8.10673 8.10679C11.0052 5.20837 15.6701 5.20837 25 5.20837C34.3298 5.20837 38.9948 5.20837 41.8933 8.10679C44.7916 11.0052 44.7916 15.6702 44.7916 25C44.7916 34.3298 44.7916 38.9948 41.8933 41.8934C38.9948 44.7917 34.3298 44.7917 25 44.7917C15.6701 44.7917 11.0052 44.7917 8.10673 41.8934C5.20831 38.9948 5.20831 34.3298 5.20831 25Z" stroke="white" stroke-width="1.5" stroke-linejoin="round"/>
<path d="M34.375 25C34.375 30.1777 30.1777 34.375 25 34.375C19.8223 34.375 15.625 30.1777 15.625 25C15.625 19.8223 19.8223 15.625 25 15.625C30.1777 15.625 34.375 19.8223 34.375 25Z" stroke="white" stroke-width="1.5"/>
<path d="M36.4746 13.5416H36.4558" stroke="white" stroke-width="2" stroke-linecap="round" stroke-linejoin="round"/>
</svg>
