<svg width="50" height="50" viewBox="0 0 50 50" fill="none" xmlns="http://www.w3.org/2000/svg">
<path d="M9.37496 19.7916H8.33329C6.36911 19.7916 5.38702 19.7916 4.77681 20.4018C4.16663 21.012 4.16663 21.9941 4.16663 23.9583V41.6666C4.16663 43.6308 4.16663 44.6129 4.77681 45.2231C5.38702 45.8333 6.36911 45.8333 8.33329 45.8333H9.37496C11.3391 45.8333 12.3212 45.8333 12.9314 45.2231C13.5416 44.6129 13.5416 43.6308 13.5416 41.6666V23.9583C13.5416 21.9941 13.5416 21.012 12.9314 20.4018C12.3212 19.7916 11.3391 19.7916 9.37496 19.7916Z" stroke="white" stroke-width="1.5"/>
<path d="M13.5416 8.85413C13.5416 11.443 11.443 13.5416 8.85413 13.5416C6.26529 13.5416 4.16663 11.443 4.16663 8.85413C4.16663 6.26529 6.26529 4.16663 8.85413 4.16663C11.443 4.16663 13.5416 6.26529 13.5416 8.85413Z" stroke="white" stroke-width="1.5"/>
<path d="M25.6791 19.7916H23.9583C21.9941 19.7916 21.012 19.7916 20.4018 20.4018C19.7916 21.012 19.7916 21.9941 19.7916 23.9583V41.6666C19.7916 43.6308 19.7916 44.6129 20.4018 45.2231C21.012 45.8333 21.9941 45.8333 23.9583 45.8333H25C26.9641 45.8333 27.9462 45.8333 28.5564 45.2231C29.1666 44.6129 29.1666 43.6308 29.1666 41.6666L29.1668 34.3752C29.1668 30.9235 30.2668 28.1252 33.5164 28.1252C35.141 28.1252 36.4583 29.5243 36.4583 31.2502V40.6252C36.4583 42.5893 36.4583 43.5714 37.0685 44.1816C37.6785 44.7918 38.6608 44.7918 40.625 44.7918H41.6639C43.6277 44.7918 44.6095 44.7918 45.2198 44.1818C45.83 43.5718 45.8302 42.59 45.8306 40.6262L45.8335 29.167C45.8335 23.9895 40.9091 19.7921 36.035 19.7921C33.2602 19.7921 30.7848 21.1523 29.1668 23.2791C29.1666 21.9664 29.1666 21.3102 28.8816 20.8229C28.701 20.5143 28.4439 20.2573 28.1354 20.0768C27.6481 19.7916 26.9918 19.7916 25.6791 19.7916Z" stroke="white" stroke-width="1.5" stroke-linejoin="round"/>
</svg>
