<svg width="72" height="72" viewBox="0 0 72 72" fill="none" xmlns="http://www.w3.org/2000/svg">
<path d="M53.6777 18.3223C51.3562 16.0009 48.6002 14.1594 45.5671 12.903C42.5339 11.6466 39.283 11 36 11C32.7169 11 29.466 11.6466 26.4329 12.903C23.3998 14.1594 20.6438 16.0009 18.3223 18.3223C16.0009 20.6438 14.1594 23.3998 12.903 26.4329C11.6466 29.4661 11 32.717 11 36C11 39.283 11.6466 42.5339 12.903 45.5671C14.1594 48.6002 16.0009 51.3562 18.3223 53.6777L36 36L53.6777 18.3223Z" fill="black"/>
<mask id="path-2-inside-1_16_2" fill="white">
<path d="M17.6777 53.033C19.9992 55.3545 22.7551 57.196 25.7883 58.4523C28.8214 59.7087 32.0723 60.3553 35.3554 60.3553C38.6384 60.3553 41.8893 59.7087 44.9224 58.4523C47.9556 57.196 50.7116 55.3545 53.033 53.033C55.3545 50.7115 57.196 47.9556 58.4523 44.9224C59.7087 41.8893 60.3554 38.6384 60.3554 35.3553C60.3554 32.0723 59.7087 28.8214 58.4523 25.7883C57.196 22.7551 55.3545 19.9991 53.033 17.6777L35.3554 35.3553L17.6777 53.033Z"/>
</mask>
<path d="M17.6777 53.033C19.9992 55.3545 22.7551 57.196 25.7883 58.4523C28.8214 59.7087 32.0723 60.3553 35.3554 60.3553C38.6384 60.3553 41.8893 59.7087 44.9224 58.4523C47.9556 57.196 50.7116 55.3545 53.033 53.033C55.3545 50.7115 57.196 47.9556 58.4523 44.9224C59.7087 41.8893 60.3554 38.6384 60.3554 35.3553C60.3554 32.0723 59.7087 28.8214 58.4523 25.7883C57.196 22.7551 55.3545 19.9991 53.033 17.6777L35.3554 35.3553L17.6777 53.033Z" fill="white" stroke="black" stroke-width="2" mask="url(#path-2-inside-1_16_2)"/>
</svg>
